# xmcd
#
# Track frame offsets:
#	150
#	31132
#	49095
#	63622
#	82332
#	98177
#	120297
#	140472
#	164162
#	172660
#	193165
#	212287
#	233417
#
# Disc length: 3651 seconds
#
# Revision: 7
# Processed by: cddbd v1.5.2PL0 Copyright (c) Steve Scherf et al.
# Submitted via: audiograbber 1.83.01
#
DISCID=aa0e410d
DTITLE=Depeche Mode - Sounds Of The Universe
DYEAR=2009
DGENRE=New Wave
TTITLE0=In Chains
TTITLE1=Hole To Feed
TTITLE2=Wrong
TTITLE3=Fragile Tension
TTITLE4=Little Soul
TTITLE5=In Sympathy
TTITLE6=Peace
TTITLE7=Come Back
TTITLE8=Spacewalker
TTITLE9=Perfect
TTITLE10=Miles Away/The Truth Is
TTITLE11=Jezebel
TTITLE12=Corrupt
EXTD=
EXTT0=
EXTT1=
EXTT2=
EXTT3=
EXTT4=
EXTT5=
EXTT6=
EXTT7=
EXTT8=
EXTT9=
EXTT10=
EXTT11=
EXTT12=
PLAYORDER=
